<mxfile host="app.diagrams.net" modified="2021-01-27T21:30:37.639Z" agent="5.0 (Windows)" etag="AlI8FXAkhXfbOIpHxmC2" version="14.2.7" type="github">
  <diagram id="R2lEEEUBdFMjLlhIrx00" name="Page-1">
    <mxGraphModel dx="1673" dy="45" grid="1" gridSize="10" guides="1" tooltips="1" connect="1" arrows="1" fold="1" page="1" pageScale="1" pageWidth="1600" pageHeight="900" background="#182E3E" math="0" shadow="0" extFonts="Permanent Marker^https://fonts.googleapis.com/css?family=Permanent+Marker">
      <root>
        <mxCell id="0" />
        <mxCell id="1" parent="0" />
        <mxCell id="lrPJJsw6j4kh9ImwdUWu-14" value="" style="rounded=0;whiteSpace=wrap;html=1;strokeColor=#314354;fillColor=#647687;fontColor=#ffffff;" vertex="1" parent="1">
          <mxGeometry x="630" y="910" width="960" height="860" as="geometry" />
        </mxCell>
        <mxCell id="lrPJJsw6j4kh9ImwdUWu-7" value="" style="rounded=0;whiteSpace=wrap;html=1;strokeColor=#FFFFFF;fillColor=#EEEEEE;fontColor=#1A1A1A;" vertex="1" parent="1">
          <mxGeometry x="640" y="940" width="940" height="210" as="geometry" />
        </mxCell>
        <mxCell id="lrPJJsw6j4kh9ImwdUWu-8" value="" style="rounded=0;whiteSpace=wrap;html=1;strokeColor=#314354;fillColor=#647687;fontColor=#ffffff;" vertex="1" parent="1">
          <mxGeometry x="10" y="910" width="600" height="860" as="geometry" />
        </mxCell>
        <mxCell id="lrPJJsw6j4kh9ImwdUWu-9" value="" style="rounded=0;whiteSpace=wrap;html=1;strokeColor=#FFFFFF;fillColor=#EEEEEE;fontColor=#1A1A1A;" vertex="1" parent="1">
          <mxGeometry x="640" y="1160" width="940" height="600" as="geometry" />
        </mxCell>
        <mxCell id="lrPJJsw6j4kh9ImwdUWu-10" value="&lt;h1&gt;External Layer&lt;br&gt;&lt;/h1&gt;&lt;p&gt;Responsible for requesting, acquiring and processing data collected from external sources.&lt;/p&gt;" style="text;html=1;strokeColor=none;fillColor=none;spacing=5;spacingTop=-20;whiteSpace=wrap;overflow=hidden;rounded=0;fontColor=#1A1A1A;" vertex="1" parent="1">
          <mxGeometry x="650" y="950" width="190" height="120" as="geometry" />
        </mxCell>
        <mxCell id="lrPJJsw6j4kh9ImwdUWu-12" value="&lt;h1&gt;Internal Layer&lt;br&gt;&lt;/h1&gt;&lt;p&gt;Responsible for managing and manipulating internal data, as well as back end server functions.&lt;/p&gt;" style="text;html=1;strokeColor=none;fillColor=none;spacing=5;spacingTop=-20;whiteSpace=wrap;overflow=hidden;rounded=0;fontColor=#1A1A1A;" vertex="1" parent="1">
          <mxGeometry x="650" y="1170" width="190" height="120" as="geometry" />
        </mxCell>
        <mxCell id="lrPJJsw6j4kh9ImwdUWu-15" value="&lt;font style=&quot;font-size: 20px&quot; color=&quot;#FCFCFC&quot;&gt;&lt;b&gt;Backend&lt;/b&gt;&lt;/font&gt;" style="text;html=1;strokeColor=none;fillColor=none;align=center;verticalAlign=middle;whiteSpace=wrap;rounded=0;fontColor=#1A1A1A;" vertex="1" parent="1">
          <mxGeometry x="640" y="910" width="90" height="30" as="geometry" />
        </mxCell>
        <mxCell id="lrPJJsw6j4kh9ImwdUWu-16" value="" style="rounded=0;whiteSpace=wrap;html=1;fillColor=#d0cee2;strokeColor=#56517e;" vertex="1" parent="1">
          <mxGeometry x="840" y="950" width="330" height="190" as="geometry" />
        </mxCell>
        <mxCell id="lrPJJsw6j4kh9ImwdUWu-17" value="" style="rounded=0;whiteSpace=wrap;html=1;fillColor=#b1ddf0;strokeColor=#10739e;" vertex="1" parent="1">
          <mxGeometry x="1180" y="950" width="390" height="190" as="geometry" />
        </mxCell>
        <mxCell id="lrPJJsw6j4kh9ImwdUWu-18" value="&lt;h1&gt;Data Collector&lt;br&gt;&lt;/h1&gt;&lt;p&gt;Creates queries that are forwarded to the mailing module in order to collect data from users. Upon recieving the data, processes and tranforms it into the appropriate format and saves it to the database.&lt;br&gt;&lt;/p&gt;" style="text;html=1;strokeColor=none;fillColor=none;spacing=5;spacingTop=-20;whiteSpace=wrap;overflow=hidden;rounded=0;fontColor=#1A1A1A;" vertex="1" parent="1">
          <mxGeometry x="850" y="950" width="190" height="200" as="geometry" />
        </mxCell>
        <mxCell id="lrPJJsw6j4kh9ImwdUWu-19" value="&lt;h1&gt;Mailing System&lt;br&gt;&lt;/h1&gt;&lt;p&gt;Creates and sends messages to users based on queries received from the data collection module.&lt;/p&gt;" style="text;html=1;strokeColor=none;fillColor=none;spacing=5;spacingTop=-20;whiteSpace=wrap;overflow=hidden;rounded=0;fontColor=#1A1A1A;" vertex="1" parent="1">
          <mxGeometry x="1190" y="950" width="190" height="120" as="geometry" />
        </mxCell>
        <mxCell id="lrPJJsw6j4kh9ImwdUWu-20" value="" style="rounded=0;whiteSpace=wrap;html=1;strokeColor=#b46504;fillColor=#fad7ac;" vertex="1" parent="1">
          <mxGeometry x="1300" y="1170" width="270" height="580" as="geometry" />
        </mxCell>
        <mxCell id="lrPJJsw6j4kh9ImwdUWu-21" value="" style="rounded=0;whiteSpace=wrap;html=1;strokeColor=#82b366;fillColor=#d5e8d4;" vertex="1" parent="1">
          <mxGeometry x="1020" y="1170" width="270" height="280" as="geometry" />
        </mxCell>
        <mxCell id="lrPJJsw6j4kh9ImwdUWu-22" value="" style="rounded=0;whiteSpace=wrap;html=1;strokeColor=#006EAF;fillColor=#1ba1e2;fontColor=#ffffff;" vertex="1" parent="1">
          <mxGeometry x="650" y="1290" width="360" height="460" as="geometry" />
        </mxCell>
        <mxCell id="lrPJJsw6j4kh9ImwdUWu-23" value="" style="rounded=0;whiteSpace=wrap;html=1;strokeColor=#d6b656;fillColor=#fff2cc;" vertex="1" parent="1">
          <mxGeometry x="1020" y="1460" width="270" height="290" as="geometry" />
        </mxCell>
        <mxCell id="lrPJJsw6j4kh9ImwdUWu-24" value="&lt;h1&gt;Evolutionary Engine&lt;br&gt;&lt;/h1&gt;&lt;p&gt;Uses a heuristic genetic algorithm to create course&amp;nbsp; schedules and optimize the process through which they are created.&lt;/p&gt;" style="text;html=1;strokeColor=none;fillColor=none;spacing=5;spacingTop=-20;whiteSpace=wrap;overflow=hidden;rounded=0;fontColor=#1A1A1A;" vertex="1" parent="1">
          <mxGeometry x="1030" y="1180" width="190" height="190" as="geometry" />
        </mxCell>
        <mxCell id="lrPJJsw6j4kh9ImwdUWu-25" value="&lt;h1&gt;Parser Engine&lt;br&gt;&lt;/h1&gt;&lt;p&gt;Manipulates data between different formats and mediates interactions with .csv file / environments.&lt;/p&gt;" style="text;html=1;strokeColor=none;fillColor=none;spacing=5;spacingTop=-20;whiteSpace=wrap;overflow=hidden;rounded=0;fontColor=#1A1A1A;" vertex="1" parent="1">
          <mxGeometry x="1030" y="1470" width="190" height="120" as="geometry" />
        </mxCell>
        <mxCell id="lrPJJsw6j4kh9ImwdUWu-26" value="&lt;h1&gt;Testing Suite&lt;br&gt;&lt;/h1&gt;&lt;div&gt;Ensures the system is &lt;br&gt;&lt;/div&gt;&lt;div&gt;&lt;ol&gt;&lt;li&gt;Functional&lt;/li&gt;&lt;li&gt;Efficient&lt;/li&gt;&lt;li&gt;Scalable&lt;/li&gt;&lt;li&gt;Maintanable&lt;/li&gt;&lt;/ol&gt;&lt;br&gt;&lt;/div&gt;" style="text;html=1;strokeColor=none;fillColor=none;spacing=5;spacingTop=-20;whiteSpace=wrap;overflow=hidden;rounded=0;fontColor=#1A1A1A;" vertex="1" parent="1">
          <mxGeometry x="1310" y="1180" width="190" height="140" as="geometry" />
        </mxCell>
        <mxCell id="lrPJJsw6j4kh9ImwdUWu-27" value="" style="rounded=0;whiteSpace=wrap;html=1;strokeColor=#666666;fillColor=#f5f5f5;fontColor=#333333;" vertex="1" parent="1">
          <mxGeometry x="1310" y="1330" width="250" height="130" as="geometry" />
        </mxCell>
        <mxCell id="lrPJJsw6j4kh9ImwdUWu-28" value="" style="rounded=0;whiteSpace=wrap;html=1;strokeColor=#666666;fillColor=#f5f5f5;fontColor=#333333;" vertex="1" parent="1">
          <mxGeometry x="1310" y="1470" width="250" height="130" as="geometry" />
        </mxCell>
        <mxCell id="lrPJJsw6j4kh9ImwdUWu-29" value="" style="rounded=0;whiteSpace=wrap;html=1;strokeColor=#666666;fillColor=#f5f5f5;fontColor=#333333;" vertex="1" parent="1">
          <mxGeometry x="1310" y="1610" width="250" height="120" as="geometry" />
        </mxCell>
        <mxCell id="lrPJJsw6j4kh9ImwdUWu-31" value="&lt;h1&gt;Integration Tests&lt;br&gt;&lt;/h1&gt;&lt;p&gt;Ensure the distinct components of the application interact in expected ways.&lt;/p&gt;" style="text;html=1;strokeColor=none;fillColor=none;spacing=5;spacingTop=-20;whiteSpace=wrap;overflow=hidden;rounded=0;fontColor=#1A1A1A;" vertex="1" parent="1">
          <mxGeometry x="1310" y="1330" width="190" height="120" as="geometry" />
        </mxCell>
        <mxCell id="lrPJJsw6j4kh9ImwdUWu-32" value="&lt;h1&gt;Reliability Tests&lt;br&gt;&lt;/h1&gt;&lt;p&gt;Ensure the application functionality is accurate and handles input edge cases.&lt;/p&gt;" style="text;html=1;strokeColor=none;fillColor=none;spacing=5;spacingTop=-20;whiteSpace=wrap;overflow=hidden;rounded=0;fontColor=#1A1A1A;" vertex="1" parent="1">
          <mxGeometry x="1310" y="1480" width="190" height="120" as="geometry" />
        </mxCell>
        <mxCell id="lrPJJsw6j4kh9ImwdUWu-33" value="&lt;h1&gt;Stress Tests&lt;br&gt;&lt;/h1&gt;&lt;p&gt;Tests which ensure the software is (1) resistant to cybersecurity attacks and (2) high server loads.&lt;/p&gt;" style="text;html=1;strokeColor=none;fillColor=none;spacing=5;spacingTop=-20;whiteSpace=wrap;overflow=hidden;rounded=0;fontColor=#1A1A1A;" vertex="1" parent="1">
          <mxGeometry x="1310" y="1620" width="190" height="120" as="geometry" />
        </mxCell>
        <mxCell id="lrPJJsw6j4kh9ImwdUWu-34" value="" style="rounded=0;whiteSpace=wrap;html=1;fillColor=#f5f5f5;strokeColor=#666666;fontColor=#333333;" vertex="1" parent="1">
          <mxGeometry x="660" y="1330" width="330" height="210" as="geometry" />
        </mxCell>
        <mxCell id="lrPJJsw6j4kh9ImwdUWu-35" value="" style="rounded=0;whiteSpace=wrap;html=1;strokeColor=#666666;fillColor=#f5f5f5;fontColor=#333333;" vertex="1" parent="1">
          <mxGeometry x="660" y="1560" width="330" height="180" as="geometry" />
        </mxCell>
        <mxCell id="lrPJJsw6j4kh9ImwdUWu-36" value="&lt;h1&gt;Database Interface&lt;br&gt;&lt;/h1&gt;&lt;p&gt;Mediates operations with the database to ensure encapsulation and separation of concerns.&lt;/p&gt;" style="text;html=1;strokeColor=none;fillColor=none;spacing=5;spacingTop=-20;whiteSpace=wrap;overflow=hidden;rounded=0;fontColor=#1A1A1A;" vertex="1" parent="1">
          <mxGeometry x="670" y="1340" width="190" height="150" as="geometry" />
        </mxCell>
        <mxCell id="lrPJJsw6j4kh9ImwdUWu-37" value="&lt;h1&gt;Database&lt;/h1&gt;&lt;p&gt;Stores collected and generated application data.&lt;br&gt;&lt;/p&gt;" style="text;html=1;strokeColor=none;fillColor=none;spacing=5;spacingTop=-20;whiteSpace=wrap;overflow=hidden;rounded=0;fontColor=#1A1A1A;" vertex="1" parent="1">
          <mxGeometry x="670" y="1570" width="190" height="120" as="geometry" />
        </mxCell>
        <mxCell id="lrPJJsw6j4kh9ImwdUWu-38" value="" style="rounded=0;whiteSpace=wrap;html=1;strokeColor=#FFFFFF;fillColor=#EEEEEE;fontColor=#1A1A1A;" vertex="1" parent="1">
          <mxGeometry x="20" y="940" width="580" height="820" as="geometry" />
        </mxCell>
        <mxCell id="lrPJJsw6j4kh9ImwdUWu-41" value="&lt;font style=&quot;font-size: 20px&quot; color=&quot;#FCFCFC&quot;&gt;&lt;b&gt;Frontend&lt;/b&gt;&lt;/font&gt;" style="text;html=1;strokeColor=none;fillColor=none;align=center;verticalAlign=middle;whiteSpace=wrap;rounded=0;fontColor=#1A1A1A;" vertex="1" parent="1">
          <mxGeometry x="20" y="910" width="90" height="30" as="geometry" />
        </mxCell>
        <mxCell id="lrPJJsw6j4kh9ImwdUWu-42" value="" style="rounded=0;whiteSpace=wrap;html=1;strokeColor=#BD7000;fillColor=#f0a30a;fontColor=#ffffff;" vertex="1" parent="1">
          <mxGeometry x="30" y="950" width="180" height="130" as="geometry" />
        </mxCell>
        <mxCell id="lrPJJsw6j4kh9ImwdUWu-43" value="" style="rounded=0;whiteSpace=wrap;html=1;strokeColor=#36393d;fillColor=#cdeb8b;" vertex="1" parent="1">
          <mxGeometry x="30" y="1090" width="560" height="270" as="geometry" />
        </mxCell>
        <mxCell id="lrPJJsw6j4kh9ImwdUWu-44" value="" style="rounded=0;whiteSpace=wrap;html=1;strokeColor=#36393d;fillColor=#ffcccc;" vertex="1" parent="1">
          <mxGeometry x="30" y="1370" width="560" height="200" as="geometry" />
        </mxCell>
        <mxCell id="lrPJJsw6j4kh9ImwdUWu-45" value="" style="rounded=0;whiteSpace=wrap;html=1;strokeColor=#36393d;fillColor=#ffcc99;" vertex="1" parent="1">
          <mxGeometry x="30" y="1580" width="560" height="170" as="geometry" />
        </mxCell>
        <mxCell id="lrPJJsw6j4kh9ImwdUWu-46" value="&lt;h1&gt;Email Templates&lt;br&gt;&lt;/h1&gt;&lt;p&gt;Used by the mailing system.&lt;br&gt;&lt;/p&gt;" style="text;html=1;strokeColor=none;fillColor=none;spacing=5;spacingTop=-20;whiteSpace=wrap;overflow=hidden;rounded=0;fontColor=#1A1A1A;" vertex="1" parent="1">
          <mxGeometry x="40" y="960" width="190" height="120" as="geometry" />
        </mxCell>
        <mxCell id="lrPJJsw6j4kh9ImwdUWu-47" value="" style="rounded=0;whiteSpace=wrap;html=1;strokeColor=#3A5431;fillColor=#6d8764;fontColor=#ffffff;" vertex="1" parent="1">
          <mxGeometry x="220" y="950" width="190" height="130" as="geometry" />
        </mxCell>
        <mxCell id="lrPJJsw6j4kh9ImwdUWu-48" value="&lt;h1&gt;Forms&lt;/h1&gt;&lt;p&gt;Used to collect input from the application users.&lt;br&gt;&lt;/p&gt;" style="text;html=1;strokeColor=none;fillColor=none;spacing=5;spacingTop=-20;whiteSpace=wrap;overflow=hidden;rounded=0;fontColor=#1A1A1A;" vertex="1" parent="1">
          <mxGeometry x="230" y="955" width="190" height="120" as="geometry" />
        </mxCell>
        <mxCell id="lrPJJsw6j4kh9ImwdUWu-49" value="&lt;h1&gt;Course Views&lt;br&gt;&lt;/h1&gt;&lt;p&gt;UI for interacting with course schedules.&lt;/p&gt;" style="text;html=1;strokeColor=none;fillColor=none;spacing=5;spacingTop=-20;whiteSpace=wrap;overflow=hidden;rounded=0;fontColor=#1A1A1A;" vertex="1" parent="1">
          <mxGeometry x="40" y="1100" width="190" height="120" as="geometry" />
        </mxCell>
        <mxCell id="lrPJJsw6j4kh9ImwdUWu-50" value="" style="rounded=0;whiteSpace=wrap;html=1;" vertex="1" parent="1">
          <mxGeometry x="40" y="1190" width="260" height="160" as="geometry" />
        </mxCell>
        <mxCell id="lrPJJsw6j4kh9ImwdUWu-51" value="&lt;h1&gt;Registration Views&lt;br&gt;&lt;/h1&gt;&lt;p&gt;Views pertaining to course registration (student&amp;nbsp; side).&lt;br&gt;&lt;/p&gt;" style="text;html=1;strokeColor=none;fillColor=none;spacing=5;spacingTop=-20;whiteSpace=wrap;overflow=hidden;rounded=0;fontColor=#1A1A1A;" vertex="1" parent="1">
          <mxGeometry x="50" y="1200" width="190" height="120" as="geometry" />
        </mxCell>
        <mxCell id="lrPJJsw6j4kh9ImwdUWu-52" value="" style="rounded=0;whiteSpace=wrap;html=1;" vertex="1" parent="1">
          <mxGeometry x="310" y="1190" width="260" height="160" as="geometry" />
        </mxCell>
        <mxCell id="lrPJJsw6j4kh9ImwdUWu-53" value="&lt;h1&gt;Schedule Creation Views&lt;br&gt;&lt;/h1&gt;&lt;p&gt;Views pertaining to course schedule creation.&lt;br&gt;&lt;/p&gt;" style="text;html=1;strokeColor=none;fillColor=none;spacing=5;spacingTop=-20;whiteSpace=wrap;overflow=hidden;rounded=0;fontColor=#1A1A1A;" vertex="1" parent="1">
          <mxGeometry x="320" y="1200" width="190" height="150" as="geometry" />
        </mxCell>
        <mxCell id="lrPJJsw6j4kh9ImwdUWu-54" value="&lt;h1&gt;Admin Views&lt;br&gt;&lt;/h1&gt;General views for interacting with the system. Includes the admin console as well as ways of administring commands to the backend (i.e send data collection requests)." style="text;html=1;strokeColor=none;fillColor=none;spacing=5;spacingTop=-20;whiteSpace=wrap;overflow=hidden;rounded=0;fontColor=#1A1A1A;" vertex="1" parent="1">
          <mxGeometry x="40" y="1380" width="180" height="150" as="geometry" />
        </mxCell>
        <mxCell id="lrPJJsw6j4kh9ImwdUWu-55" value="&lt;h1&gt;User Views&lt;br&gt;&lt;/h1&gt;&lt;p&gt;Views for letting non admin users interact&amp;nbsp; with the application.&lt;br&gt;&lt;/p&gt;" style="text;html=1;strokeColor=none;fillColor=none;spacing=5;spacingTop=-20;whiteSpace=wrap;overflow=hidden;rounded=0;fontColor=#1A1A1A;" vertex="1" parent="1">
          <mxGeometry x="40" y="1590" width="190" height="120" as="geometry" />
        </mxCell>
      </root>
    </mxGraphModel>
  </diagram>
</mxfile>
